<svg width="536" height="536" viewBox="0 0 536 536" fill="none" xmlns="http://www.w3.org/2000/svg">
<g clip-path="url(#clip0_2_15)">
<path fill-rule="evenodd" clip-rule="evenodd" d="M163.424 273.656L293.768 499.443L233.867 500.004L199.068 439.344L164.021 499.68L134.259 499.669L119.015 473.333L168.946 387.477L133.502 325.796L163.424 273.656Z" fill="url(#paint0_linear_2_15)"/>
<path fill-rule="evenodd" clip-rule="evenodd" d="M210.47 180.652L80.1048 406.426L49.6677 354.831L84.802 294.364L15.0258 294.181L0.154674 268.4L15.3402 242.031L114.659 242.345L150.354 180.808L210.47 180.652Z" fill="url(#paint1_linear_2_15)"/>
<path fill-rule="evenodd" clip-rule="evenodd" d="M220.471 361.132L481.18 361.145L451.716 413.302L381.783 413.108L416.513 473.627L401.621 499.397L371.192 499.43L321.804 413.26L250.665 413.116L220.471 361.132Z" fill="url(#paint2_linear_2_15)"/>
<path fill-rule="evenodd" clip-rule="evenodd" d="M372.213 262.203L241.87 36.4167L301.771 35.8547L336.569 96.5152L371.616 36.1789L401.379 36.1907L416.622 62.5262L366.691 148.382L402.136 210.063L372.213 262.203Z" fill="url(#paint3_linear_2_15)"/>
<path fill-rule="evenodd" clip-rule="evenodd" d="M163.424 273.656L293.768 499.443L233.867 500.004L199.068 439.344L164.021 499.68L134.259 499.669L119.015 473.333L168.946 387.477L133.502 325.796L163.424 273.656Z" fill="url(#paint4_linear_2_15)"/>
<path fill-rule="evenodd" clip-rule="evenodd" d="M314.627 174.208L53.9188 174.196L83.3826 122.039L153.315 122.233L118.586 61.7133L133.477 35.944L163.907 35.9105L213.294 122.08L284.434 122.224L314.627 174.208Z" fill="url(#paint5_linear_2_15)"/>
<path fill-rule="evenodd" clip-rule="evenodd" d="M324.871 355.173L455.236 129.399L485.673 180.993L450.539 241.46L520.315 241.643L535.186 267.424L520.001 293.793L420.682 293.48L384.987 355.016L324.871 355.173Z" fill="url(#paint6_linear_2_15)"/>
</g>
<defs>
<linearGradient id="paint0_linear_2_15" x1="122.569" y1="280.747" x2="218.025" y2="445.843" gradientUnits="userSpaceOnUse">
<stop stop-color="#699AD7"/>
<stop offset="0.243452" stop-color="#7EB1DD"/>
<stop offset="1" stop-color="#7EBAE4"/>
</linearGradient>
<linearGradient id="paint1_linear_2_15" x1="183.901" y1="148.816" x2="88.6524" y2="314.031" gradientUnits="userSpaceOnUse">
<stop stop-color="#699AD7"/>
<stop offset="0.243452" stop-color="#7EB1DD"/>
<stop offset="1" stop-color="#7EBAE4"/>
</linearGradient>
<linearGradient id="paint2_linear_2_15" x1="206.185" y1="400.06" x2="396.89" y2="399.94" gradientUnits="userSpaceOnUse">
<stop stop-color="#699AD7"/>
<stop offset="0.243452" stop-color="#7EB1DD"/>
<stop offset="1" stop-color="#7EBAE4"/>
</linearGradient>
<linearGradient id="paint3_linear_2_15" x1="413.068" y1="255.112" x2="317.612" y2="90.0164" gradientUnits="userSpaceOnUse">
<stop stop-color="#699AD7"/>
<stop offset="0.243452" stop-color="#7EB1DD"/>
<stop offset="1" stop-color="#7EBAE4"/>
</linearGradient>
<linearGradient id="paint4_linear_2_15" x1="132.435" y1="275.131" x2="226.197" y2="440.868" gradientUnits="userSpaceOnUse">
<stop stop-color="#415E9A"/>
<stop offset="0.231686" stop-color="#4A6BAF"/>
<stop offset="1" stop-color="#5277C3"/>
</linearGradient>
<linearGradient id="paint5_linear_2_15" x1="328.844" y1="146.633" x2="138.431" y2="144.965" gradientUnits="userSpaceOnUse">
<stop stop-color="#415E9A"/>
<stop offset="0.231686" stop-color="#4A6BAF"/>
<stop offset="1" stop-color="#5277C3"/>
</linearGradient>
<linearGradient id="paint6_linear_2_15" x1="341.643" y1="381.272" x2="438.295" y2="217.203" gradientUnits="userSpaceOnUse">
<stop stop-color="#415E9A"/>
<stop offset="0.231686" stop-color="#4A6BAF"/>
<stop offset="1" stop-color="#5277C3"/>
</linearGradient>
<clipPath id="clip0_2_15">
<rect width="535.151" height="535.15" fill="white"/>
</clipPath>
</defs>
</svg>
